<?xml version="1.0" encoding="UTF-8" standalone="no"?>
<!DOCTYPE svg PUBLIC "-//W3C//DTD SVG 1.1//EN" "http://www.w3.org/Graphics/SVG/1.1/DTD/svg11.dtd">
<svg width="100%" height="100%" viewBox="0 0 956 952" version="1.1" xmlns="http://www.w3.org/2000/svg" xmlns:xlink="http://www.w3.org/1999/xlink" xml:space="preserve" xmlns:serif="http://www.serif.com/" style="fill-rule:evenodd;clip-rule:evenodd;stroke-linejoin:round;stroke-miterlimit:2;">
    <g id="VINYL-FACE" serif:id="VINYL FACE">
        <g id="FACE">
            <path id="FACE_SUBTRACTED" d="M100.963,368.6C127.675,273.538 190.065,188.417 282.248,135.194C469.598,27.028 709.52,91.315 817.686,278.664C925.853,466.014 861.566,705.936 674.216,814.102C486.866,922.269 246.945,857.982 138.778,670.632C138.642,670.395 138.505,670.159 138.369,669.922L284.653,585.464C296.101,605.294 312.58,620.424 331.551,630.176L340.307,647.59C340.698,648.368 341.382,648.958 342.209,649.232C343.035,649.505 343.937,649.439 344.715,649.048L350.68,646.048L354.806,654.781C359.034,663.729 363.336,672.643 367.489,681.627C369.259,685.457 370.879,689.357 372.574,693.221C374.462,697.524 376.697,700.612 377.107,701.198C387.728,716.389 405.898,720.664 410.293,721.746C418.361,723.731 427.621,724.388 432.059,724.491C443.163,724.747 453.03,723.996 464.299,722.238C482.907,719.334 505.475,713.21 527.977,705.417C536.918,702.321 571.225,690.528 624.028,664.742C624.675,665.209 625.417,665.522 626.192,665.664C626.074,667.136 626.021,668.737 626.044,670.391C626.24,684.654 631.548,699.015 633.039,703.42C632.936,703.103 628.713,690.273 628.001,676.933C627.735,671.947 628.018,668.206 628.409,665.603C628.891,665.486 629.365,665.299 629.816,665.038C631.477,664.08 632.426,662.36 632.479,660.574C639.313,657.168 646.431,653.54 653.817,649.68C661.463,645.684 667.961,642.182 672.971,639.438L675.679,644.412C676.109,645.201 676.835,645.788 677.698,646.042C678.56,646.296 679.488,646.198 680.278,645.768L737.758,614.468C738.548,614.038 739.134,613.312 739.389,612.45C739.643,611.587 739.544,610.659 739.114,609.87L732.618,597.939C732.188,597.15 731.462,596.563 730.6,596.309C729.737,596.055 728.809,596.153 728.02,596.583L670.539,627.883C669.75,628.313 669.163,629.039 668.909,629.901C668.654,630.764 668.753,631.692 669.183,632.482L671.928,637.522C657.327,644.56 643.339,650.883 630.636,656.388C628.966,654.947 626.503,654.642 624.486,655.806C624.132,656.011 623.81,656.25 623.522,656.517C619.493,654.077 615.547,651.501 611.54,649.026C608.729,647.289 605.915,645.556 603.067,643.88C602.777,643.709 602.485,643.541 602.193,643.375C617.944,633.261 619.552,632.295 638.153,620.254C639.19,619.583 639.797,617.962 638.895,616.594C615.658,581.312 594.235,549.157 571.785,515.323L633.085,617.134C593.866,640.721 593.744,640.595 593.042,641.425C591.788,642.907 591.954,645.459 594.069,646.581C594.463,646.79 598.811,648.895 599.662,649.283C602.446,650.549 605.261,651.749 608.052,652.999C612.689,655.077 617.318,657.171 621.951,659.258C621.884,659.555 621.843,659.857 621.828,660.162C595.287,671.411 575.74,678.575 570.343,680.553C506.352,704.004 469.577,709.669 452.605,711.823C442.615,713.092 436.21,713.352 434.78,713.41C422.309,713.918 415.523,712.939 415.018,712.885C391.402,710.335 381.837,699.902 377.249,692.364C376.884,691.765 370.693,680.79 370.37,680.188C365.687,671.469 361.148,662.674 356.537,653.917C355.037,651.068 353.582,648.194 352.117,645.326L357.915,642.411C358.693,642.02 359.283,641.335 359.557,640.509C359.582,640.432 359.605,640.355 359.624,640.277C386.663,646.215 415.911,642.477 441.751,627.559C496.72,595.823 515.582,525.429 483.845,470.461L535.706,440.519C567.442,495.488 637.835,514.35 692.804,482.613C747.773,450.877 766.634,380.484 734.898,325.515C734.898,325.515 776.248,301.642 790.092,293.644C791.275,292.962 792.135,291.835 792.482,290.514C792.828,289.194 792.632,287.79 791.938,286.614C684.412,105.822 453.366,43.028 273.756,146.726C186.367,197.18 127.023,277.886 100.963,368.6ZM359.624,640.277C355.616,639.397 351.656,638.304 347.764,637.003C347.034,635.661 346.29,634.326 345.526,633.003C344.893,631.907 344.186,632.258 344.709,633.411C344.736,633.47 344.75,633.499 346.144,636.449C341.151,634.698 336.274,632.604 331.551,630.176L327.42,621.96C327.028,621.182 326.962,620.281 327.236,619.454C327.509,618.627 328.1,617.943 328.878,617.552L333.978,614.987C339.681,618.272 345.678,620.98 351.872,623.085L359.373,638.003C359.728,638.708 359.815,639.516 359.624,640.277ZM351.872,623.085L351.543,622.431C377.998,631.574 408.123,629.634 434.243,614.554C482.034,586.962 498.433,525.76 470.841,477.969L471.284,477.713C499.018,525.749 482.535,587.264 434.499,614.998C408.409,630.061 378.343,632.08 351.872,623.085ZM351.543,622.431C345.662,620.398 339.961,617.817 334.527,614.711L342.078,610.915C342.856,610.523 343.757,610.457 344.584,610.731C345.411,611.004 346.095,611.595 346.486,612.373L351.543,622.431ZM334.527,614.711L333.978,614.987C319.18,606.463 306.36,594.054 297.214,578.212L297.658,577.956C306.817,593.821 319.68,606.226 334.527,614.711ZM346.144,636.449C346.682,636.638 347.222,636.822 347.764,637.003C349.258,639.754 350.692,642.537 352.117,645.326L350.68,646.048L346.144,636.449ZM194.765,574.988L194.489,574.23C167.753,500.272 173.538,426.219 197.58,365.859C233.944,274.565 313.274,210.377 407.23,192.517C480.233,178.639 562.811,193.487 632.154,244.056C650.23,257.238 663.351,270.419 664.663,271.701C650.408,258.232 598.362,210.042 512.595,195.233C437.92,182.34 361.753,199.204 299.002,243.721C194.007,318.207 153.257,453.848 194.503,574.225L194.765,574.988ZM194.765,574.988C194.772,575.008 194.771,575.005 194.765,574.988ZM604.765,400.648L626.958,387.835C629.617,392.44 635.514,394.02 640.12,391.362C644.725,388.703 646.305,382.805 643.646,378.2L665.839,365.387C675.569,382.24 669.786,403.823 652.932,413.554C636.079,423.284 614.496,417.501 604.765,400.648ZM583.277,280.439C570.317,272.903 515.547,241.085 439.645,249.417C375.425,256.467 319.274,290.624 283.236,337.653C274.721,348.765 253.407,378.088 242.235,422.789C230.814,468.492 236.242,505.65 238.561,519.49C235.022,500.891 228.059,455.586 246.243,400.634C259.935,359.256 289.978,309.958 345.392,277.08C407.707,240.108 486.272,234.383 557.184,266.517C571.401,272.959 582.516,279.973 583.277,280.439ZM548.267,433.267L548.71,433.011C576.303,480.802 637.504,497.201 685.296,469.609C733.087,442.016 749.486,380.815 721.893,333.024L722.337,332.767C750.071,380.803 733.588,442.319 685.552,470.052C637.516,497.786 576,481.303 548.267,433.267ZM326.347,561.393L326.791,561.136C345.1,592.848 385.711,603.73 417.423,585.421C449.135,567.112 460.017,526.501 441.708,494.789L442.152,494.533C460.602,526.49 449.636,567.414 417.679,585.865C385.722,604.315 344.797,593.35 326.347,561.393ZM364.115,414.573C364.156,414.489 363.92,414.892 363.962,414.808C364.283,414.151 366.099,411.315 366.291,411.015C384.896,381.956 415.547,362.414 449.499,358.506C486.291,354.271 513.349,368.63 520.931,372.779C513.195,368.976 475.387,350.24 427.06,366.33C408.348,372.56 395.857,381.78 390.915,385.586C376.08,397.009 367.531,409.378 364.115,414.573ZM353.713,545.593L375.905,532.78C378.564,537.386 384.461,538.966 389.067,536.307C393.672,533.648 395.252,527.75 392.594,523.145L414.786,510.332C424.516,527.186 418.733,548.769 401.88,558.499C385.026,568.23 363.443,562.447 353.713,545.593ZM340.93,552.973L341.374,552.717C355.036,576.38 385.34,584.5 409.003,570.838C432.667,557.176 440.787,526.872 427.125,503.208L427.569,502.952C441.372,526.861 433.168,557.478 409.26,571.282C385.351,585.086 354.733,576.882 340.93,552.973ZM311.826,569.776L312.27,569.52C335.206,609.247 386.08,622.878 425.807,599.942C465.533,577.006 479.165,526.132 456.229,486.405L456.673,486.149C479.75,526.12 466.034,577.308 426.063,600.386C386.091,623.464 334.903,609.748 311.826,569.776ZM591.983,408.028L592.426,407.771C606.089,431.435 636.392,439.555 660.056,425.893C683.72,412.231 691.84,381.927 678.178,358.263L678.621,358.007C692.425,381.915 684.221,412.533 660.312,426.337C636.404,440.14 605.786,431.936 591.983,408.028ZM539.518,319.513C529.95,315.209 488.242,296.314 434.054,306.304C393.091,313.856 356.005,336.114 330.309,367.181C298.394,405.765 292.401,446.143 290.728,460.87C291.773,448.524 296.43,396.001 340.799,351.341C365.926,326.049 403.786,304.61 451.106,301.694C497.211,298.853 531.336,315.539 539.518,319.513ZM577.4,416.447L577.843,416.191C596.152,447.903 636.763,458.785 668.476,440.476C700.188,422.167 711.07,381.556 692.76,349.843L693.204,349.587C711.655,381.544 700.689,422.469 668.732,440.92C636.775,459.37 595.85,448.404 577.4,416.447ZM487.218,418.09C483.496,416.984 471.349,413.289 453.791,416.222C442.335,418.137 434.601,422.305 432.164,423.615C440.197,418.358 454.195,411.268 473.499,414.316C480.416,415.408 485.362,417.362 487.218,418.09ZM745.421,281.091C731.046,261.358 685.349,200.722 598.644,163.759C482.865,114.4 350.462,131.099 251.877,208.206C213.297,238.38 190.062,270.269 178.885,287.095C151.355,328.538 139.531,366.177 134.836,382.342C142.521,353.78 162.659,290.416 220.627,231.16C250.235,200.894 279.935,183.06 286.239,179.234C355.118,137.436 436.73,121.127 520.039,135.996C570.46,144.994 607.389,163.774 617.818,169.137C692.112,207.344 731.584,261.251 745.421,281.091ZM562.879,424.831L563.322,424.575C586.259,464.301 637.133,477.933 676.859,454.997C716.586,432.061 730.218,381.186 707.281,341.46L707.725,341.204C730.803,381.175 717.087,432.363 677.116,455.441C637.144,478.518 585.956,464.802 562.879,424.831Z" style="fill:white;"/>
        </g>
        <g id="RING_ROTATE">
            <g id="RING_TEXT" transform="matrix(1,0,0,1,68.23227,64.648278)">
                <g transform="matrix(0.768835,-0.639447,0.639447,0.768835,-47.668633,104.043767)">
                    <g transform="matrix(91.666667,0,0,91.666667,120.068393,117.952267)">
                        <path d="M0.267,-0L0.022,-0.728L0.246,-0.728L0.331,-0.445C0.349,-0.384 0.366,-0.322 0.381,-0.259C0.396,-0.195 0.411,-0.131 0.425,-0.066L0.381,-0.066C0.395,-0.131 0.409,-0.195 0.423,-0.259C0.438,-0.322 0.454,-0.384 0.471,-0.445L0.552,-0.728L0.772,-0.728L0.536,-0L0.267,-0Z" style="fill:white;fill-rule:nonzero;"/>
                    </g>
                </g>
                <g transform="matrix(0.83437,-0.551205,0.551205,0.83437,-12.644892,107.945418)">
                    <g transform="matrix(91.666667,0,0,91.666667,173.29485,75.013355)">
                        <rect x="0.047" y="-0.728" width="0.197" height="0.728" style="fill:white;fill-rule:nonzero;"/>
                    </g>
                </g>
                <g transform="matrix(0.886799,-0.462156,0.462156,0.886799,-6.907317,95.281224)">
                    <g transform="matrix(91.666667,0,0,91.666667,191.044162,61.740537)">
                        <path d="M0.327,-0L0.128,-0L0.128,-0.168L0.319,-0.168C0.355,-0.168 0.386,-0.174 0.412,-0.185C0.437,-0.196 0.457,-0.216 0.47,-0.245C0.484,-0.273 0.49,-0.313 0.49,-0.363C0.49,-0.414 0.483,-0.454 0.47,-0.482C0.456,-0.511 0.436,-0.531 0.41,-0.542C0.384,-0.554 0.352,-0.56 0.313,-0.56L0.125,-0.56L0.125,-0.728L0.324,-0.728C0.399,-0.728 0.464,-0.713 0.518,-0.684C0.572,-0.655 0.614,-0.613 0.644,-0.559C0.674,-0.504 0.688,-0.439 0.688,-0.363C0.688,-0.288 0.674,-0.223 0.644,-0.168C0.615,-0.114 0.573,-0.072 0.519,-0.043C0.465,-0.014 0.401,-0 0.327,-0ZM0.244,-0.728L0.244,-0L0.047,-0L0.047,-0.728L0.244,-0.728Z" style="fill:white;fill-rule:nonzero;"/>
                    </g>
                </g>
                <g transform="matrix(0.941956,-0.335736,0.335736,0.941956,3.126262,84.447287)">
                    <g transform="matrix(91.666667,0,0,91.666667,245.792311,33.182212)">
                        <path d="M0.047,-0L0.047,-0.728L0.571,-0.728L0.571,-0.568L0.244,-0.568L0.244,-0.445L0.544,-0.445L0.544,-0.29L0.244,-0.29L0.244,-0.159L0.569,-0.159L0.569,-0L0.047,-0Z" style="fill:white;fill-rule:nonzero;"/>
                    </g>
                </g>
                <g transform="matrix(0.980511,-0.196462,0.196462,0.980511,2.794366,58.108308)">
                    <g transform="matrix(91.666667,0,0,91.666667,294.28897,14.969302)">
                        <path d="M0.388,0.01C0.322,0.01 0.262,-0.005 0.208,-0.033C0.155,-0.062 0.112,-0.104 0.081,-0.159C0.05,-0.215 0.034,-0.283 0.034,-0.363C0.034,-0.444 0.05,-0.513 0.081,-0.568C0.112,-0.624 0.155,-0.666 0.208,-0.695C0.262,-0.723 0.322,-0.737 0.388,-0.737C0.454,-0.737 0.514,-0.723 0.567,-0.695C0.62,-0.666 0.663,-0.624 0.694,-0.568C0.726,-0.513 0.741,-0.444 0.741,-0.363C0.741,-0.283 0.726,-0.214 0.694,-0.159C0.663,-0.103 0.62,-0.061 0.567,-0.033C0.514,-0.004 0.454,0.01 0.388,0.01ZM0.388,-0.162C0.421,-0.162 0.448,-0.17 0.47,-0.185C0.493,-0.201 0.51,-0.223 0.521,-0.253C0.532,-0.283 0.538,-0.32 0.538,-0.363C0.538,-0.407 0.532,-0.444 0.521,-0.474C0.51,-0.504 0.493,-0.527 0.47,-0.542C0.448,-0.558 0.421,-0.565 0.388,-0.565C0.355,-0.565 0.328,-0.558 0.305,-0.542C0.283,-0.527 0.266,-0.504 0.255,-0.474C0.243,-0.444 0.237,-0.407 0.237,-0.363C0.237,-0.32 0.243,-0.283 0.255,-0.253C0.266,-0.223 0.283,-0.201 0.305,-0.185C0.328,-0.17 0.355,-0.162 0.388,-0.162Z" style="fill:white;fill-rule:nonzero;"/>
                    </g>
                </g>
                <g transform="matrix(0.998944,0.045949,-0.045949,0.998944,0.391777,-18.535159)">
                    <g transform="matrix(91.666667,0,0,91.666667,403.365745,-0.745796)">
                        <path d="M0.281,-0.272C0.265,-0.272 0.249,-0.277 0.236,-0.285C0.222,-0.293 0.211,-0.304 0.202,-0.318C0.194,-0.332 0.19,-0.347 0.19,-0.364C0.19,-0.381 0.194,-0.396 0.202,-0.41C0.211,-0.423 0.222,-0.434 0.236,-0.443C0.249,-0.451 0.265,-0.455 0.281,-0.455C0.298,-0.455 0.313,-0.451 0.327,-0.443C0.341,-0.434 0.352,-0.423 0.36,-0.41C0.368,-0.396 0.373,-0.381 0.373,-0.364C0.373,-0.347 0.368,-0.332 0.36,-0.318C0.352,-0.304 0.341,-0.293 0.327,-0.285C0.313,-0.277 0.298,-0.272 0.281,-0.272Z" style="fill:white;fill-rule:nonzero;"/>
                    </g>
                </g>
                <g transform="matrix(0.957414,0.288718,-0.288718,0.957414,23.048692,-142.301065)">
                    <g transform="matrix(91.666667,0,0,91.666667,493.902565,6.980908)">
                        <path d="M0.022,-0L0.336,-0.445L0.336,-0.294L0.052,-0.728L0.281,-0.728L0.339,-0.633C0.353,-0.61 0.365,-0.588 0.374,-0.567C0.384,-0.546 0.392,-0.526 0.4,-0.507C0.407,-0.488 0.416,-0.471 0.425,-0.455L0.365,-0.455C0.375,-0.471 0.384,-0.488 0.392,-0.507C0.399,-0.526 0.408,-0.546 0.417,-0.567C0.427,-0.588 0.439,-0.61 0.453,-0.633L0.512,-0.728L0.735,-0.728L0.46,-0.306L0.46,-0.447L0.764,-0L0.528,-0L0.449,-0.125C0.436,-0.146 0.426,-0.163 0.418,-0.177C0.411,-0.192 0.405,-0.204 0.399,-0.216C0.394,-0.227 0.387,-0.239 0.379,-0.251L0.406,-0.251C0.398,-0.239 0.392,-0.227 0.386,-0.216C0.381,-0.204 0.374,-0.191 0.367,-0.177C0.36,-0.163 0.349,-0.146 0.335,-0.125L0.252,-0L0.022,-0Z" style="fill:white;fill-rule:nonzero;"/>
                    </g>
                </g>
                <g transform="matrix(0.900766,0.434304,-0.434304,0.900766,66.941928,-240.017179)">
                    <g transform="matrix(91.666667,0,0,91.666667,558.697602,26.479606)">
                        <path d="M0.047,-0L0.047,-0.728L0.36,-0.728C0.414,-0.728 0.462,-0.718 0.502,-0.698C0.543,-0.678 0.574,-0.65 0.597,-0.613C0.62,-0.576 0.631,-0.532 0.631,-0.48C0.631,-0.428 0.619,-0.384 0.596,-0.349C0.573,-0.313 0.541,-0.286 0.499,-0.268C0.457,-0.249 0.409,-0.24 0.354,-0.24L0.166,-0.24L0.166,-0.394L0.313,-0.394C0.337,-0.394 0.357,-0.396 0.374,-0.402C0.39,-0.408 0.403,-0.417 0.412,-0.43C0.42,-0.443 0.425,-0.46 0.425,-0.48C0.425,-0.501 0.42,-0.518 0.412,-0.531C0.403,-0.544 0.39,-0.554 0.374,-0.56C0.357,-0.566 0.337,-0.569 0.313,-0.569L0.244,-0.569L0.244,-0L0.047,-0ZM0.44,-0L0.263,-0.334L0.473,-0.334L0.655,-0L0.44,-0Z" style="fill:white;fill-rule:nonzero;"/>
                    </g>
                </g>
                <g transform="matrix(0.778759,0.627323,-0.627323,0.778759,189.773117,-389.321025)">
                    <g transform="matrix(91.666667,0,0,91.666667,646.841361,74.387847)">
                        <path d="M0.281,-0.272C0.265,-0.272 0.249,-0.277 0.236,-0.285C0.222,-0.293 0.211,-0.304 0.202,-0.318C0.194,-0.332 0.19,-0.347 0.19,-0.364C0.19,-0.381 0.194,-0.396 0.202,-0.41C0.211,-0.423 0.222,-0.434 0.236,-0.443C0.249,-0.451 0.265,-0.455 0.281,-0.455C0.298,-0.455 0.313,-0.451 0.327,-0.443C0.341,-0.434 0.352,-0.423 0.36,-0.41C0.368,-0.396 0.373,-0.381 0.373,-0.364C0.373,-0.347 0.368,-0.332 0.36,-0.318C0.352,-0.304 0.341,-0.293 0.327,-0.285C0.313,-0.277 0.298,-0.272 0.281,-0.272Z" style="fill:white;fill-rule:nonzero;"/>
                    </g>
                </g>
                <g transform="matrix(0.614153,0.789187,-0.789187,0.614153,381.96114,-512.395947)">
                    <g transform="matrix(91.666667,0,0,91.666667,714.991433,134.421406)">
                        <path d="M0.343,0.009C0.28,0.009 0.225,-0.001 0.177,-0.019C0.13,-0.038 0.094,-0.067 0.068,-0.106C0.042,-0.145 0.029,-0.195 0.028,-0.256L0.216,-0.256C0.217,-0.234 0.223,-0.215 0.233,-0.2C0.243,-0.184 0.257,-0.173 0.275,-0.165C0.293,-0.157 0.314,-0.153 0.34,-0.153C0.361,-0.153 0.379,-0.156 0.393,-0.161C0.407,-0.166 0.418,-0.174 0.426,-0.183C0.433,-0.192 0.437,-0.203 0.437,-0.215C0.437,-0.226 0.433,-0.236 0.426,-0.244C0.419,-0.252 0.408,-0.26 0.392,-0.267C0.376,-0.273 0.354,-0.28 0.327,-0.285L0.254,-0.301C0.19,-0.314 0.139,-0.338 0.102,-0.371C0.065,-0.404 0.047,-0.449 0.047,-0.506C0.047,-0.552 0.059,-0.593 0.084,-0.627C0.11,-0.662 0.144,-0.689 0.188,-0.708C0.232,-0.728 0.283,-0.737 0.341,-0.737C0.4,-0.737 0.451,-0.727 0.493,-0.708C0.536,-0.688 0.569,-0.66 0.593,-0.625C0.616,-0.589 0.628,-0.548 0.628,-0.5L0.438,-0.5C0.437,-0.524 0.428,-0.542 0.412,-0.555C0.397,-0.569 0.373,-0.575 0.341,-0.575C0.321,-0.575 0.304,-0.573 0.291,-0.568C0.278,-0.563 0.268,-0.557 0.262,-0.548C0.256,-0.54 0.253,-0.53 0.253,-0.52C0.253,-0.508 0.256,-0.498 0.263,-0.49C0.27,-0.481 0.28,-0.473 0.295,-0.467C0.309,-0.461 0.328,-0.455 0.351,-0.45L0.41,-0.438C0.45,-0.429 0.485,-0.418 0.513,-0.404C0.542,-0.39 0.566,-0.373 0.584,-0.355C0.603,-0.336 0.616,-0.315 0.625,-0.292C0.633,-0.268 0.638,-0.243 0.638,-0.215C0.638,-0.167 0.626,-0.126 0.602,-0.093C0.579,-0.06 0.545,-0.034 0.501,-0.017C0.457,0 0.404,0.009 0.343,0.009Z" style="fill:white;fill-rule:nonzero;"/>
                    </g>
                </g>
                <g transform="matrix(0.489795,0.871838,-0.871838,0.489795,538.552051,-563.003733)">
                    <g transform="matrix(91.666667,0,0,91.666667,750.305833,178.636449)">
                        <path d="M0.388,0.01C0.322,0.01 0.262,-0.005 0.208,-0.033C0.155,-0.062 0.112,-0.104 0.081,-0.159C0.05,-0.215 0.034,-0.283 0.034,-0.363C0.034,-0.444 0.05,-0.513 0.081,-0.568C0.112,-0.624 0.155,-0.666 0.208,-0.695C0.262,-0.723 0.322,-0.737 0.388,-0.737C0.454,-0.737 0.514,-0.723 0.567,-0.695C0.62,-0.666 0.663,-0.624 0.694,-0.568C0.726,-0.513 0.741,-0.444 0.741,-0.363C0.741,-0.283 0.726,-0.214 0.694,-0.159C0.663,-0.103 0.62,-0.061 0.567,-0.033C0.514,-0.004 0.454,0.01 0.388,0.01ZM0.388,-0.162C0.421,-0.162 0.448,-0.17 0.47,-0.185C0.493,-0.201 0.51,-0.223 0.521,-0.253C0.532,-0.283 0.538,-0.32 0.538,-0.363C0.538,-0.407 0.532,-0.444 0.521,-0.474C0.51,-0.504 0.493,-0.527 0.47,-0.542C0.448,-0.558 0.421,-0.565 0.388,-0.565C0.355,-0.565 0.328,-0.558 0.305,-0.542C0.283,-0.527 0.266,-0.504 0.255,-0.474C0.243,-0.444 0.237,-0.407 0.237,-0.363C0.237,-0.32 0.243,-0.283 0.255,-0.253C0.266,-0.223 0.283,-0.201 0.305,-0.185C0.328,-0.17 0.355,-0.162 0.388,-0.162Z" style="fill:white;fill-rule:nonzero;"/>
                    </g>
                </g>
                <g transform="matrix(0.347323,0.937745,-0.937745,0.347323,733.139008,-579.855253)">
                    <g transform="matrix(91.666667,0,0,91.666667,783.128395,236.747903)">
                        <path d="M0.36,0.009C0.298,0.009 0.243,-0.002 0.196,-0.024C0.149,-0.046 0.112,-0.077 0.086,-0.118C0.06,-0.158 0.047,-0.206 0.047,-0.262L0.047,-0.728L0.244,-0.728L0.244,-0.278C0.244,-0.256 0.249,-0.235 0.259,-0.218C0.269,-0.201 0.283,-0.187 0.301,-0.177C0.318,-0.167 0.338,-0.162 0.36,-0.162C0.383,-0.162 0.403,-0.167 0.421,-0.177C0.438,-0.187 0.452,-0.201 0.462,-0.218C0.472,-0.235 0.478,-0.256 0.478,-0.278L0.478,-0.728L0.675,-0.728L0.675,-0.262C0.675,-0.206 0.662,-0.158 0.635,-0.118C0.609,-0.077 0.572,-0.046 0.525,-0.024C0.478,-0.002 0.423,0.009 0.36,0.009Z" style="fill:white;fill-rule:nonzero;"/>
                    </g>
                </g>
                <g transform="matrix(0.196846,0.980434,-0.980434,0.196846,935.20816,-552.840183)">
                    <g transform="matrix(91.666667,0,0,91.666667,805.038508,294.398457)">
                        <path d="M0.047,-0L0.047,-0.728L0.262,-0.728L0.435,-0.442C0.45,-0.417 0.464,-0.392 0.477,-0.368C0.49,-0.343 0.503,-0.316 0.515,-0.286C0.527,-0.256 0.54,-0.221 0.552,-0.182L0.535,-0.182C0.534,-0.208 0.531,-0.239 0.529,-0.273C0.527,-0.308 0.524,-0.342 0.522,-0.376C0.521,-0.409 0.52,-0.438 0.52,-0.461L0.52,-0.728L0.723,-0.728L0.723,-0L0.508,-0L0.346,-0.266C0.328,-0.296 0.312,-0.324 0.298,-0.35C0.284,-0.377 0.271,-0.404 0.258,-0.434C0.245,-0.463 0.23,-0.497 0.214,-0.535L0.234,-0.535C0.237,-0.501 0.24,-0.467 0.242,-0.433C0.244,-0.399 0.246,-0.368 0.248,-0.339C0.249,-0.31 0.25,-0.285 0.25,-0.266L0.25,-0L0.047,-0Z" style="fill:white;fill-rule:nonzero;"/>
                    </g>
                </g>
                <g transform="matrix(0.041201,0.999151,-0.999151,0.041201,1143.413133,-473.188873)">
                    <g transform="matrix(91.666667,0,0,91.666667,818.258363,359.173084)">
                        <path d="M0.327,-0L0.128,-0L0.128,-0.168L0.319,-0.168C0.355,-0.168 0.386,-0.174 0.412,-0.185C0.437,-0.196 0.457,-0.216 0.47,-0.245C0.484,-0.273 0.49,-0.313 0.49,-0.363C0.49,-0.414 0.483,-0.454 0.47,-0.482C0.456,-0.511 0.436,-0.531 0.41,-0.542C0.384,-0.554 0.352,-0.56 0.313,-0.56L0.125,-0.56L0.125,-0.728L0.324,-0.728C0.399,-0.728 0.464,-0.713 0.518,-0.684C0.572,-0.655 0.614,-0.613 0.644,-0.559C0.674,-0.504 0.688,-0.439 0.688,-0.363C0.688,-0.288 0.674,-0.223 0.644,-0.168C0.615,-0.114 0.573,-0.072 0.519,-0.043C0.465,-0.014 0.401,-0 0.327,-0ZM0.244,-0.728L0.244,-0L0.047,-0L0.047,-0.728L0.244,-0.728Z" style="fill:white;fill-rule:nonzero;"/>
                    </g>
                </g>
                <g transform="matrix(-0.194156,0.980971,-0.980971,-0.194156,1431.663371,-246.808671)">
                    <g transform="matrix(91.666667,0,0,91.666667,817.205432,464.634482)">
                        <path d="M0.281,-0.272C0.265,-0.272 0.249,-0.277 0.236,-0.285C0.222,-0.293 0.211,-0.304 0.202,-0.318C0.194,-0.332 0.19,-0.347 0.19,-0.364C0.19,-0.381 0.194,-0.396 0.202,-0.41C0.211,-0.423 0.222,-0.434 0.236,-0.443C0.249,-0.451 0.265,-0.455 0.281,-0.455C0.298,-0.455 0.313,-0.451 0.327,-0.443C0.341,-0.434 0.352,-0.423 0.36,-0.41C0.368,-0.396 0.373,-0.381 0.373,-0.364C0.373,-0.347 0.368,-0.332 0.36,-0.318C0.352,-0.304 0.341,-0.293 0.327,-0.285C0.313,-0.277 0.298,-0.272 0.281,-0.272Z" style="fill:white;fill-rule:nonzero;"/>
                    </g>
                </g>
                <g transform="matrix(-0.42984,0.902905,-0.902905,-0.42984,1637.540522,71.871735)">
                    <g transform="matrix(91.666667,0,0,91.666667,796.077749,552.966769)">
                        <path d="M0.022,-0L0.258,-0.728L0.528,-0.728L0.772,-0L0.549,-0L0.464,-0.282C0.446,-0.343 0.429,-0.407 0.413,-0.473C0.397,-0.539 0.382,-0.604 0.368,-0.669L0.413,-0.669C0.399,-0.604 0.385,-0.539 0.371,-0.473C0.357,-0.407 0.341,-0.343 0.324,-0.282L0.243,-0L0.022,-0ZM0.197,-0.14L0.197,-0.287L0.598,-0.287L0.598,-0.14L0.197,-0.14Z" style="fill:white;fill-rule:nonzero;"/>
                    </g>
                </g>
                <g transform="matrix(-0.565214,0.824944,-0.824944,-0.565214,1707.141833,329.829329)">
                    <g transform="matrix(91.666667,0,0,91.666667,766.652879,614.787993)">
                        <path d="M0.047,-0L0.047,-0.728L0.36,-0.728C0.414,-0.728 0.462,-0.718 0.502,-0.698C0.543,-0.678 0.574,-0.65 0.597,-0.613C0.62,-0.576 0.631,-0.532 0.631,-0.48C0.631,-0.428 0.619,-0.384 0.596,-0.349C0.573,-0.313 0.541,-0.286 0.499,-0.268C0.457,-0.249 0.409,-0.24 0.354,-0.24L0.166,-0.24L0.166,-0.394L0.313,-0.394C0.337,-0.394 0.357,-0.396 0.374,-0.402C0.39,-0.408 0.403,-0.417 0.412,-0.43C0.42,-0.443 0.425,-0.46 0.425,-0.48C0.425,-0.501 0.42,-0.518 0.412,-0.531C0.403,-0.544 0.39,-0.554 0.374,-0.56C0.357,-0.566 0.337,-0.569 0.313,-0.569L0.244,-0.569L0.244,-0L0.047,-0ZM0.44,-0L0.263,-0.334L0.473,-0.334L0.655,-0L0.44,-0Z" style="fill:white;fill-rule:nonzero;"/>
                    </g>
                </g>
                <g transform="matrix(-0.67152,0.740986,-0.740986,-0.67152,1718.950125,561.675106)">
                    <g transform="matrix(91.666667,0,0,91.666667,734.979566,661.843487)">
                        <path d="M0.027,-0.568L0.027,-0.728L0.659,-0.728L0.659,-0.568L0.442,-0.568L0.442,-0L0.245,-0L0.245,-0.568L0.027,-0.568Z" style="fill:white;fill-rule:nonzero;"/>
                    </g>
                </g>
                <g transform="matrix(-0.824944,0.565214,-0.565214,-0.824944,1624.021668,964.797091)">
                    <g transform="matrix(91.666667,0,0,91.666667,662.604267,733.891324)">
                        <path d="M0.281,-0.272C0.265,-0.272 0.249,-0.277 0.236,-0.285C0.222,-0.293 0.211,-0.304 0.202,-0.318C0.194,-0.332 0.19,-0.347 0.19,-0.364C0.19,-0.381 0.194,-0.396 0.202,-0.41C0.211,-0.423 0.222,-0.434 0.236,-0.443C0.249,-0.451 0.265,-0.455 0.281,-0.455C0.298,-0.455 0.313,-0.451 0.327,-0.443C0.341,-0.434 0.352,-0.423 0.36,-0.41C0.368,-0.396 0.373,-0.381 0.373,-0.364C0.373,-0.347 0.368,-0.332 0.36,-0.318C0.352,-0.304 0.341,-0.293 0.327,-0.285C0.313,-0.277 0.298,-0.272 0.281,-0.272Z" style="fill:white;fill-rule:nonzero;"/>
                    </g>
                </g>
                <g transform="matrix(-0.936672,0.350209,-0.350209,-0.936672,1408.192556,1309.575816)">
                    <g transform="matrix(91.666667,0,0,91.666667,585.690683,782.109958)">
                        <path d="M0.391,0.01C0.32,0.01 0.258,-0.005 0.204,-0.035C0.151,-0.066 0.109,-0.108 0.079,-0.164C0.049,-0.22 0.034,-0.286 0.034,-0.362C0.034,-0.442 0.05,-0.51 0.082,-0.566C0.114,-0.622 0.157,-0.664 0.211,-0.694C0.265,-0.723 0.324,-0.737 0.39,-0.737C0.433,-0.737 0.473,-0.731 0.51,-0.719C0.546,-0.707 0.579,-0.689 0.608,-0.667C0.637,-0.645 0.66,-0.618 0.677,-0.588C0.694,-0.557 0.705,-0.524 0.709,-0.487L0.51,-0.487C0.507,-0.5 0.502,-0.511 0.495,-0.521C0.489,-0.53 0.48,-0.538 0.47,-0.545C0.461,-0.552 0.449,-0.557 0.436,-0.56C0.423,-0.564 0.409,-0.565 0.394,-0.565C0.361,-0.565 0.333,-0.558 0.309,-0.542C0.286,-0.526 0.268,-0.503 0.256,-0.473C0.243,-0.443 0.237,-0.407 0.237,-0.365C0.237,-0.323 0.243,-0.286 0.255,-0.256C0.267,-0.226 0.284,-0.202 0.307,-0.186C0.33,-0.17 0.358,-0.162 0.393,-0.162C0.423,-0.162 0.448,-0.167 0.468,-0.175C0.488,-0.184 0.503,-0.197 0.512,-0.213C0.522,-0.229 0.527,-0.248 0.527,-0.27L0.562,-0.266L0.396,-0.266L0.396,-0.406L0.718,-0.406L0.718,-0.306C0.718,-0.239 0.704,-0.183 0.676,-0.135C0.648,-0.088 0.609,-0.052 0.56,-0.028C0.51,-0.003 0.454,0.01 0.391,0.01Z" style="fill:white;fill-rule:nonzero;"/>
                    </g>
                </g>
                <g transform="matrix(-0.981198,0.193002,-0.193002,-0.981198,1195.950012,1494.015967)">
                    <g transform="matrix(91.666667,0,0,91.666667,525.203868,805.260803)">
                        <path d="M0.022,-0L0.258,-0.728L0.528,-0.728L0.772,-0L0.549,-0L0.464,-0.282C0.446,-0.343 0.429,-0.407 0.413,-0.473C0.397,-0.539 0.382,-0.604 0.368,-0.669L0.413,-0.669C0.399,-0.604 0.385,-0.539 0.371,-0.473C0.357,-0.407 0.341,-0.343 0.324,-0.282L0.243,-0L0.022,-0ZM0.197,-0.14L0.197,-0.287L0.598,-0.287L0.598,-0.14L0.197,-0.14Z" style="fill:white;fill-rule:nonzero;"/>
                    </g>
                </g>
                <g transform="matrix(-0.999947,0.010306,-0.010306,-0.999947,924.663463,1634.287442)">
                    <g transform="matrix(91.666667,0,0,91.666667,458.120805,819.526221)">
                        <path d="M0.047,-0L0.047,-0.728L0.358,-0.728L0.424,-0.5C0.429,-0.48 0.436,-0.455 0.443,-0.422C0.45,-0.39 0.457,-0.356 0.464,-0.319C0.471,-0.282 0.478,-0.246 0.483,-0.212C0.489,-0.178 0.494,-0.149 0.497,-0.126L0.46,-0.126C0.464,-0.149 0.468,-0.178 0.474,-0.212C0.48,-0.246 0.486,-0.282 0.493,-0.319C0.5,-0.356 0.507,-0.39 0.514,-0.422C0.521,-0.455 0.527,-0.48 0.533,-0.5L0.597,-0.728L0.909,-0.728L0.909,-0L0.71,-0L0.71,-0.281C0.71,-0.298 0.71,-0.32 0.711,-0.347C0.712,-0.375 0.713,-0.405 0.714,-0.438C0.715,-0.471 0.716,-0.504 0.717,-0.537C0.717,-0.57 0.718,-0.601 0.718,-0.629L0.729,-0.629C0.723,-0.598 0.716,-0.566 0.709,-0.532C0.701,-0.499 0.694,-0.467 0.686,-0.435C0.678,-0.403 0.671,-0.374 0.664,-0.347C0.656,-0.321 0.65,-0.299 0.645,-0.281L0.561,-0L0.396,-0L0.311,-0.281C0.305,-0.299 0.299,-0.321 0.292,-0.347C0.284,-0.374 0.277,-0.403 0.269,-0.435C0.26,-0.467 0.253,-0.499 0.245,-0.532C0.237,-0.566 0.23,-0.598 0.224,-0.629L0.238,-0.629C0.238,-0.601 0.239,-0.57 0.24,-0.537C0.24,-0.504 0.241,-0.471 0.242,-0.438C0.243,-0.405 0.244,-0.375 0.245,-0.347C0.246,-0.32 0.246,-0.298 0.246,-0.281L0.246,-0L0.047,-0Z" style="fill:white;fill-rule:nonzero;"/>
                    </g>
                </g>
                <g transform="matrix(-0.988261,-0.152775,0.152775,-0.988261,620.319008,1686.670438)">
                    <g transform="matrix(91.666667,0,0,91.666667,374.960215,819.502992)">
                        <path d="M0.047,-0L0.047,-0.728L0.571,-0.728L0.571,-0.568L0.244,-0.568L0.244,-0.445L0.544,-0.445L0.544,-0.29L0.244,-0.29L0.244,-0.159L0.569,-0.159L0.569,-0L0.047,-0Z" style="fill:white;fill-rule:nonzero;"/>
                    </g>
                </g>
                <g transform="matrix(-0.928062,-0.372425,0.372425,-0.928062,244.656331,1647.810857)">
                    <g transform="matrix(91.666667,0,0,91.666667,281.473826,800.276507)">
                        <path d="M0.281,-0.272C0.265,-0.272 0.249,-0.277 0.236,-0.285C0.222,-0.293 0.211,-0.304 0.202,-0.318C0.194,-0.332 0.19,-0.347 0.19,-0.364C0.19,-0.381 0.194,-0.396 0.202,-0.41C0.211,-0.423 0.222,-0.434 0.236,-0.443C0.249,-0.451 0.265,-0.455 0.281,-0.455C0.298,-0.455 0.313,-0.451 0.327,-0.443C0.341,-0.434 0.352,-0.423 0.36,-0.41C0.368,-0.396 0.373,-0.381 0.373,-0.364C0.373,-0.347 0.368,-0.332 0.36,-0.318C0.352,-0.304 0.341,-0.293 0.327,-0.285C0.313,-0.277 0.298,-0.272 0.281,-0.272Z" style="fill:white;fill-rule:nonzero;"/>
                    </g>
                </g>
                <g transform="matrix(-0.789417,-0.613858,0.613858,-0.789417,-115.240979,1489.019742)">
                    <g transform="matrix(91.666667,0,0,91.666667,197.783042,764.276535)">
                        <path d="M0.215,-0L0.022,-0.728L0.243,-0.728L0.301,-0.445C0.309,-0.41 0.315,-0.371 0.321,-0.329C0.327,-0.287 0.333,-0.245 0.339,-0.203C0.344,-0.161 0.35,-0.122 0.356,-0.086L0.317,-0.086C0.324,-0.122 0.33,-0.161 0.336,-0.203C0.343,-0.245 0.349,-0.287 0.356,-0.329C0.362,-0.371 0.37,-0.41 0.378,-0.445L0.442,-0.728L0.64,-0.728L0.704,-0.445C0.712,-0.41 0.72,-0.371 0.726,-0.329C0.733,-0.287 0.739,-0.245 0.746,-0.203C0.752,-0.161 0.758,-0.122 0.765,-0.086L0.726,-0.086C0.732,-0.122 0.738,-0.161 0.743,-0.203C0.749,-0.245 0.754,-0.287 0.76,-0.329C0.767,-0.371 0.773,-0.41 0.78,-0.445L0.839,-0.728L1.06,-0.728L0.867,-0L0.644,-0L0.571,-0.296C0.559,-0.347 0.549,-0.403 0.542,-0.462C0.534,-0.521 0.526,-0.578 0.515,-0.633L0.567,-0.633C0.555,-0.578 0.545,-0.521 0.539,-0.462C0.533,-0.403 0.524,-0.348 0.511,-0.296L0.438,-0L0.215,-0Z" style="fill:white;fill-rule:nonzero;"/>
                    </g>
                </g>
                <g transform="matrix(-0.668479,-0.743731,0.743731,-0.668479,-317.492809,1268.426607)">
                    <g transform="matrix(91.666667,0,0,91.666667,123.956603,704.975121)">
                        <path d="M0.047,-0L0.047,-0.728L0.571,-0.728L0.571,-0.568L0.244,-0.568L0.244,-0.445L0.544,-0.445L0.544,-0.29L0.244,-0.29L0.244,-0.159L0.569,-0.159L0.569,-0L0.047,-0Z" style="fill:white;fill-rule:nonzero;"/>
                    </g>
                </g>
                <g transform="matrix(-0.563667,-0.826002,0.826002,-0.563667,-411.730834,1116.254683)">
                    <g transform="matrix(91.666667,0,0,91.666667,88.963743,666.875155)">
                        <path d="M0.047,-0L0.047,-0.728L0.362,-0.728C0.418,-0.728 0.464,-0.72 0.502,-0.705C0.54,-0.69 0.568,-0.669 0.587,-0.642C0.607,-0.615 0.616,-0.583 0.616,-0.546C0.616,-0.519 0.61,-0.495 0.599,-0.473C0.587,-0.451 0.571,-0.432 0.55,-0.417C0.529,-0.402 0.504,-0.392 0.476,-0.387L0.476,-0.379C0.507,-0.378 0.535,-0.37 0.561,-0.356C0.586,-0.341 0.607,-0.321 0.622,-0.296C0.637,-0.27 0.645,-0.24 0.645,-0.206C0.645,-0.166 0.634,-0.131 0.614,-0.1C0.593,-0.069 0.564,-0.044 0.526,-0.027C0.488,-0.009 0.442,-0 0.39,-0L0.047,-0ZM0.244,-0.157L0.337,-0.157C0.37,-0.157 0.395,-0.164 0.411,-0.176C0.428,-0.189 0.437,-0.207 0.437,-0.231C0.437,-0.249 0.433,-0.263 0.425,-0.275C0.417,-0.287 0.406,-0.296 0.391,-0.302C0.377,-0.308 0.36,-0.312 0.34,-0.312L0.244,-0.312L0.244,-0.157ZM0.244,-0.434L0.325,-0.434C0.342,-0.434 0.358,-0.436 0.371,-0.442C0.384,-0.447 0.394,-0.455 0.402,-0.465C0.409,-0.475 0.413,-0.488 0.413,-0.503C0.413,-0.525 0.405,-0.542 0.389,-0.554C0.373,-0.566 0.353,-0.572 0.328,-0.572L0.244,-0.572L0.244,-0.434Z" style="fill:white;fill-rule:nonzero;"/>
                    </g>
                </g>
                <g transform="matrix(-0.359558,-0.933123,0.933123,-0.359558,-492.726331,824.363004)">
                    <g transform="matrix(91.666667,0,0,91.666667,36.534558,581.271038)">
                        <path d="M0.281,-0.272C0.265,-0.272 0.249,-0.277 0.236,-0.285C0.222,-0.293 0.211,-0.304 0.202,-0.318C0.194,-0.332 0.19,-0.347 0.19,-0.364C0.19,-0.381 0.194,-0.396 0.202,-0.41C0.211,-0.423 0.222,-0.434 0.236,-0.443C0.249,-0.451 0.265,-0.455 0.281,-0.455C0.298,-0.455 0.313,-0.451 0.327,-0.443C0.341,-0.434 0.352,-0.423 0.36,-0.41C0.368,-0.396 0.373,-0.381 0.373,-0.364C0.373,-0.347 0.368,-0.332 0.36,-0.318C0.352,-0.304 0.341,-0.293 0.327,-0.285C0.313,-0.277 0.298,-0.272 0.281,-0.272Z" style="fill:white;fill-rule:nonzero;"/>
                    </g>
                </g>
                <g transform="matrix(-0.100772,-0.99491,0.99491,-0.100772,-485.633726,551.729831)">
                    <g transform="matrix(91.666667,0,0,91.666667,6.517812,495.329807)">
                        <path d="M0.047,-0L0.047,-0.728L0.358,-0.728L0.424,-0.5C0.429,-0.48 0.436,-0.455 0.443,-0.422C0.45,-0.39 0.457,-0.356 0.464,-0.319C0.471,-0.282 0.478,-0.246 0.483,-0.212C0.489,-0.178 0.494,-0.149 0.497,-0.126L0.46,-0.126C0.464,-0.149 0.468,-0.178 0.474,-0.212C0.48,-0.246 0.486,-0.282 0.493,-0.319C0.5,-0.356 0.507,-0.39 0.514,-0.422C0.521,-0.455 0.527,-0.48 0.533,-0.5L0.597,-0.728L0.909,-0.728L0.909,-0L0.71,-0L0.71,-0.281C0.71,-0.298 0.71,-0.32 0.711,-0.347C0.712,-0.375 0.713,-0.405 0.714,-0.438C0.715,-0.471 0.716,-0.504 0.717,-0.537C0.717,-0.57 0.718,-0.601 0.718,-0.629L0.729,-0.629C0.723,-0.598 0.716,-0.566 0.709,-0.532C0.701,-0.499 0.694,-0.467 0.686,-0.435C0.678,-0.403 0.671,-0.374 0.664,-0.347C0.656,-0.321 0.65,-0.299 0.645,-0.281L0.561,-0L0.396,-0L0.311,-0.281C0.305,-0.299 0.299,-0.321 0.292,-0.347C0.284,-0.374 0.277,-0.403 0.269,-0.435C0.26,-0.467 0.253,-0.499 0.245,-0.532C0.237,-0.566 0.23,-0.598 0.224,-0.629L0.238,-0.629C0.238,-0.601 0.239,-0.57 0.24,-0.537C0.24,-0.504 0.241,-0.471 0.242,-0.438C0.243,-0.405 0.244,-0.375 0.245,-0.347C0.246,-0.32 0.246,-0.298 0.246,-0.281L0.246,-0L0.047,-0Z" style="fill:white;fill-rule:nonzero;"/>
                    </g>
                </g>
                <g transform="matrix(0.062157,-0.998066,0.998066,0.062157,-412.554856,385.858613)">
                    <g transform="matrix(91.666667,0,0,91.666667,-0.959266,412.452733)">
                        <path d="M0.047,-0L0.047,-0.728L0.571,-0.728L0.571,-0.568L0.244,-0.568L0.244,-0.445L0.544,-0.445L0.544,-0.29L0.244,-0.29L0.244,-0.159L0.569,-0.159L0.569,-0L0.047,-0Z" style="fill:white;fill-rule:nonzero;"/>
                    </g>
                </g>
                <g transform="matrix(0.199918,-0.979813,0.979813,0.199918,-352.240153,290.132722)">
                    <g transform="matrix(91.666667,0,0,91.666667,1.534066,360.750142)">
                        <path d="M0.327,-0L0.128,-0L0.128,-0.168L0.319,-0.168C0.355,-0.168 0.386,-0.174 0.412,-0.185C0.437,-0.196 0.457,-0.216 0.47,-0.245C0.484,-0.273 0.49,-0.313 0.49,-0.363C0.49,-0.414 0.483,-0.454 0.47,-0.482C0.456,-0.511 0.436,-0.531 0.41,-0.542C0.384,-0.554 0.352,-0.56 0.313,-0.56L0.125,-0.56L0.125,-0.728L0.324,-0.728C0.399,-0.728 0.464,-0.713 0.518,-0.684C0.572,-0.655 0.614,-0.613 0.644,-0.559C0.674,-0.504 0.688,-0.439 0.688,-0.363C0.688,-0.288 0.674,-0.223 0.644,-0.168C0.615,-0.114 0.573,-0.072 0.519,-0.043C0.465,-0.014 0.401,-0 0.327,-0ZM0.244,-0.728L0.244,-0L0.047,-0L0.047,-0.728L0.244,-0.728Z" style="fill:white;fill-rule:nonzero;"/>
                    </g>
                </g>
                <g transform="matrix(0.297982,-0.954572,0.954572,0.297982,-276.687181,224.906335)">
                    <g transform="matrix(91.666667,0,0,91.666667,14.564993,300.566343)">
                        <rect x="0.047" y="-0.728" width="0.197" height="0.728" style="fill:white;fill-rule:nonzero;"/>
                    </g>
                </g>
                <g transform="matrix(0.402084,-0.915603,0.915603,0.402084,-243.478509,184.797039)">
                    <g transform="matrix(91.666667,0,0,91.666667,19.752698,278.820606)">
                        <path d="M0.022,-0L0.258,-0.728L0.528,-0.728L0.772,-0L0.549,-0L0.464,-0.282C0.446,-0.343 0.429,-0.407 0.413,-0.473C0.397,-0.539 0.382,-0.604 0.368,-0.669L0.413,-0.669C0.399,-0.604 0.385,-0.539 0.371,-0.473C0.357,-0.407 0.341,-0.343 0.324,-0.282L0.243,-0L0.022,-0ZM0.197,-0.14L0.197,-0.287L0.598,-0.287L0.598,-0.14L0.197,-0.14Z" style="fill:white;fill-rule:nonzero;"/>
                    </g>
                </g>
                <g transform="matrix(0.613858,-0.789417,0.789417,0.613858,-114.132721,124.641856)">
                    <g transform="matrix(91.666667,0,0,91.666667,70.340557,178.985576)">
                        <path d="M0.281,-0.199C0.265,-0.199 0.249,-0.203 0.236,-0.211C0.222,-0.219 0.211,-0.231 0.202,-0.244C0.194,-0.258 0.19,-0.273 0.19,-0.29C0.19,-0.307 0.194,-0.322 0.202,-0.336C0.211,-0.35 0.222,-0.361 0.236,-0.369C0.249,-0.377 0.265,-0.381 0.281,-0.381C0.298,-0.381 0.313,-0.377 0.327,-0.369C0.341,-0.361 0.352,-0.35 0.36,-0.336C0.368,-0.322 0.373,-0.307 0.373,-0.29C0.373,-0.273 0.368,-0.258 0.36,-0.244C0.352,-0.231 0.341,-0.219 0.327,-0.211C0.313,-0.203 0.298,-0.199 0.281,-0.199Z" style="fill:white;fill-rule:nonzero;"/>
                    </g>
                </g>
            </g>
        </g>
    </g>
</svg>
