<?xml version="1.0" encoding="UTF-8" standalone="no"?>
<!DOCTYPE svg PUBLIC "-//W3C//DTD SVG 1.1//EN" "http://www.w3.org/Graphics/SVG/1.1/DTD/svg11.dtd">
<svg width="100%" height="100%" viewBox="0 0 785 784" version="1.1" xmlns="http://www.w3.org/2000/svg" xmlns:xlink="http://www.w3.org/1999/xlink" xml:space="preserve" xmlns:serif="http://www.serif.com/" style="fill-rule:evenodd;clip-rule:evenodd;stroke-linejoin:round;stroke-miterlimit:2;">
    <g id="FACE">
        <path id="FOUNDATION" d="M196.289,52.52C383.639,-55.647 623.56,8.64 731.727,195.99C839.893,383.339 775.606,623.261 588.256,731.427C400.907,839.594 160.985,775.307 52.819,587.957C-55.348,400.608 8.939,160.686 196.289,52.52Z" style="fill:white;"/>
        <path id="ELEMENTS" d="M245.591,547.501C226.621,537.749 210.142,522.619 198.693,502.79L52.409,587.247C-53.947,403.033 6.718,168.597 187.796,64.051C367.406,-39.647 598.452,23.147 705.978,203.94C706.673,205.115 706.868,206.519 706.522,207.84C706.175,209.16 705.315,210.287 704.133,210.97C690.288,218.967 648.939,242.84 648.939,242.84C680.675,297.809 661.813,368.202 606.844,399.939C551.876,431.675 481.482,412.813 449.746,357.844L397.886,387.786C429.622,442.754 410.76,513.148 355.791,544.884C329.952,559.803 300.703,563.54 273.665,557.602C273.856,556.841 273.768,556.034 273.413,555.328L265.913,540.41C292.383,549.406 322.449,547.386 348.539,532.323C396.575,504.589 413.058,443.074 385.325,395.038L384.881,395.294C412.473,443.085 396.074,504.287 348.283,531.879C322.164,546.959 292.039,548.899 265.584,539.756L260.526,529.698C260.135,528.92 259.451,528.33 258.624,528.056C257.798,527.783 256.896,527.849 256.118,528.24L248.567,532.037C233.721,523.551 220.858,511.146 211.698,495.281L211.254,495.538C220.4,511.379 233.22,523.788 248.019,532.313L242.918,534.877C242.14,535.268 241.55,535.952 241.276,536.779C241.003,537.606 241.069,538.507 241.46,539.285L245.591,547.501ZM273.665,557.602C273.645,557.68 273.623,557.757 273.597,557.834C273.324,558.661 272.733,559.345 271.955,559.736L266.157,562.651C264.733,559.862 263.298,557.079 261.804,554.328C265.697,555.629 269.656,556.722 273.665,557.602ZM266.157,562.651C267.622,565.519 269.077,568.393 270.577,571.242C275.188,579.999 279.728,588.795 284.41,597.513C284.734,598.116 290.925,609.091 291.289,609.689C295.878,617.227 305.443,627.66 329.058,630.21C329.563,630.265 336.349,631.243 348.82,630.735C350.251,630.677 356.656,630.417 366.646,629.149C383.617,626.994 420.392,621.329 484.383,597.878C489.78,595.9 509.328,588.736 535.868,577.487C535.883,577.183 535.925,576.88 535.991,576.584C531.359,574.496 526.73,572.402 522.093,570.325C519.301,569.074 516.487,567.874 513.702,566.608C512.851,566.221 508.503,564.115 508.109,563.906C505.994,562.784 505.828,560.232 507.082,558.75C507.784,557.92 507.906,558.046 547.125,534.459L485.825,432.648C508.275,466.482 529.698,498.637 552.936,533.919C553.837,535.287 553.23,536.908 552.193,537.579C533.593,549.62 531.984,550.586 516.233,560.701C516.526,560.867 516.817,561.035 517.107,561.205C519.955,562.881 522.769,564.614 525.58,566.351C529.588,568.827 533.534,571.402 537.563,573.842C537.85,573.575 538.172,573.336 538.527,573.131C540.543,571.967 543.007,572.272 544.676,573.713C557.38,568.209 571.367,561.886 585.968,554.847L583.224,549.807C582.794,549.017 582.695,548.089 582.949,547.227C583.203,546.364 583.79,545.638 584.58,545.208L642.06,513.909C642.85,513.479 643.778,513.38 644.64,513.634C645.502,513.889 646.228,514.475 646.658,515.265L653.155,527.195C653.585,527.985 653.683,528.913 653.429,529.775C653.175,530.637 652.588,531.363 651.799,531.793L594.318,563.093C593.529,563.523 592.601,563.622 591.738,563.367C590.876,563.113 590.15,562.527 589.72,561.737L587.012,556.763C582.001,559.507 575.503,563.009 567.858,567.005C560.471,570.866 553.354,574.494 546.52,577.899C546.467,579.685 545.517,581.405 543.857,582.363C543.405,582.624 542.932,582.811 542.449,582.928C542.058,585.532 541.775,589.272 542.041,594.259C542.753,607.598 546.977,620.428 547.079,620.745C545.589,616.341 540.28,601.979 540.084,587.717C540.062,586.062 540.114,584.462 540.232,582.99C539.457,582.847 538.716,582.535 538.069,582.068C485.265,607.853 450.958,619.646 442.017,622.743C419.515,630.535 396.947,636.66 378.339,639.563C367.071,641.321 357.203,642.072 346.1,641.816C341.662,641.714 332.402,641.056 324.334,639.071C319.939,637.989 301.768,633.714 291.147,618.523C290.738,617.937 288.502,614.849 286.615,610.546C284.919,606.682 283.3,602.783 281.529,598.952C277.377,589.968 273.074,581.055 268.847,572.106L264.721,563.374L266.157,562.651ZM264.721,563.374L258.755,566.373C257.977,566.764 257.076,566.83 256.249,566.557C255.422,566.283 254.738,565.693 254.347,564.915L245.591,547.501C250.314,549.929 255.191,552.023 260.184,553.774L264.721,563.374ZM265.913,540.41C259.719,538.305 253.722,535.598 248.019,532.313L248.567,532.037C254.002,535.142 259.702,537.723 265.584,539.756L265.913,540.41ZM260.184,553.774C258.79,550.824 258.776,550.796 258.749,550.736C258.226,549.583 258.934,549.232 259.567,550.328C260.331,551.651 261.074,552.986 261.804,554.328C261.263,554.148 260.723,553.963 260.184,553.774ZM108.805,492.314L108.543,491.55C67.297,371.174 108.047,235.532 213.043,161.046C275.793,116.529 351.96,99.665 426.635,112.559C512.403,127.368 564.448,175.557 578.704,189.026C577.392,187.744 564.27,174.563 546.194,161.381C476.851,110.812 394.274,95.965 321.27,109.842C227.314,127.702 147.984,191.89 111.62,283.184C87.578,343.544 81.794,417.597 108.529,491.555L108.805,492.314ZM108.805,492.314C108.811,492.33 108.813,492.333 108.805,492.314ZM267.753,462.918C277.483,479.772 299.066,485.555 315.92,475.824C332.774,466.094 338.557,444.511 328.826,427.657L306.634,440.47C309.293,445.076 307.712,450.973 303.107,453.632C298.502,456.291 292.604,454.711 289.945,450.105L267.753,462.918ZM497.318,197.764C496.556,197.298 485.441,190.284 471.224,183.842C400.313,151.708 321.747,157.433 259.433,194.405C204.019,227.283 173.975,276.581 160.283,317.959C142.1,372.911 149.062,418.216 152.601,436.815C150.282,422.976 144.854,385.818 156.276,340.115C167.447,295.413 188.761,266.09 197.277,254.978C233.315,207.949 289.465,173.792 353.686,166.743C429.588,158.41 484.357,190.228 497.318,197.764ZM462.307,350.592C490.041,398.628 551.556,415.111 599.592,387.378C647.628,359.644 664.111,298.129 636.378,250.093L635.934,250.349C663.526,298.14 647.127,359.342 599.336,386.934C551.545,414.526 490.343,398.127 462.751,350.336L462.307,350.592ZM225.866,487.101C248.944,527.073 300.132,540.789 340.103,517.711C380.075,494.634 393.791,443.446 370.713,403.474L370.269,403.73C393.205,443.457 379.574,494.331 339.847,517.267C300.12,540.203 249.246,526.572 226.31,486.845L225.866,487.101ZM659.462,198.417C645.624,178.576 606.152,124.669 531.858,86.462C521.43,81.099 484.5,62.32 434.079,53.321C350.77,38.452 269.159,54.761 200.279,96.56C193.975,100.385 164.275,118.219 134.667,148.486C76.7,207.742 56.561,271.105 48.877,299.667C53.571,283.503 65.395,245.864 92.925,204.42C104.102,187.595 127.337,155.705 165.917,125.531C264.503,48.424 396.905,31.726 512.684,81.084C599.39,118.047 645.086,178.683 659.462,198.417ZM401.258,335.415C399.402,334.687 394.457,332.733 387.539,331.641C368.235,328.594 354.237,335.683 346.204,340.941C348.642,339.63 356.375,335.462 367.831,333.548C385.389,330.614 397.536,334.31 401.258,335.415ZM476.919,342.156C499.996,382.128 551.184,395.843 591.156,372.766C631.128,349.688 644.843,298.5 621.766,258.529L621.322,258.785C644.258,298.512 630.626,349.386 590.9,372.322C551.173,395.258 500.299,381.626 477.363,341.9L476.919,342.156ZM453.558,236.838C445.376,232.864 411.251,216.179 365.147,219.019C317.826,221.935 279.966,243.374 254.839,268.666C210.47,313.326 205.813,365.849 204.769,378.195C206.441,363.468 212.435,323.091 244.349,284.506C270.045,253.44 307.132,231.181 348.095,223.629C402.283,213.639 443.991,232.534 453.558,236.838ZM506.023,325.353C519.827,349.262 550.444,357.465 574.353,343.662C598.261,329.858 606.465,299.241 592.662,275.332L592.218,275.588C605.88,299.252 597.76,329.556 574.097,343.218C550.433,356.88 520.129,348.76 506.467,325.097L506.023,325.353ZM240.387,478.718C258.838,510.675 299.762,521.641 331.719,503.19C363.677,484.74 374.642,443.815 356.192,411.858L355.748,412.114C374.057,443.826 363.175,484.437 331.463,502.746C299.751,521.055 259.14,510.174 240.831,478.461L240.387,478.718ZM278.156,331.898C281.571,326.704 290.12,314.334 304.955,302.911C309.897,299.105 322.388,289.885 341.1,283.655C389.427,267.565 427.235,286.302 434.971,290.104C427.39,285.955 400.331,271.596 363.54,275.831C329.587,279.74 298.936,299.281 280.331,328.34C280.139,328.64 278.323,331.476 278.002,332.133C277.961,332.217 278.197,331.814 278.156,331.898ZM491.44,333.772C509.89,365.73 550.815,376.695 582.772,358.245C614.729,339.794 625.695,298.87 607.245,266.912L606.801,267.169C625.11,298.881 614.228,339.492 582.516,357.801C550.804,376.11 510.193,365.228 491.884,333.516L491.44,333.772ZM254.97,470.298C268.774,494.207 299.391,502.411 323.3,488.607C347.209,474.804 355.413,444.186 341.609,420.277L341.165,420.534C354.827,444.197 346.707,474.501 323.044,488.163C299.38,501.826 269.076,493.706 255.414,470.042L254.97,470.298ZM518.806,317.973C528.536,334.826 550.119,340.609 566.973,330.879C583.826,321.149 589.609,299.566 579.879,282.712L557.687,295.525C560.346,300.13 558.765,306.028 554.16,308.687C549.555,311.346 543.657,309.765 540.998,305.16L518.806,317.973Z"/>
    </g>
</svg>
